<?xml version="1.0" standalone="no"?>
<!DOCTYPE svg PUBLIC "-//W3C//DTD SVG 20010904//EN"
 "http://www.w3.org/TR/2001/REC-SVG-20010904/DTD/svg10.dtd">
<svg version="1.0" xmlns="http://www.w3.org/2000/svg"
 width="480.000000pt" height="360.000000pt" viewBox="0 0 480.000000 360.000000"
 preserveAspectRatio="xMidYMid meet">

<g transform="translate(0.000000,360.000000) scale(0.100000,-0.100000)"
fill="#000000" stroke="none">
<path d="M1303 2703 c-12 -2 -34 -18 -48 -35 l-25 -30 2 -760 3 -760 28 -24
28 -24 1109 0 1109 0 28 24 28 24 3 761 2 760 -29 33 -29 33 -1094 1 c-601 1
-1103 -1 -1115 -3z m2201 -69 c14 -14 16 -90 16 -685 0 -368 -3 -669 -7 -668
-5 0 -62 77 -128 171 -443 631 -545 773 -571 786 -37 20 -95 19 -130 -2 -16
-10 -58 -59 -94 -109 -35 -51 -142 -201 -236 -333 l-172 -242 175 -173 c143
-143 173 -178 171 -199 -7 -59 -34 -38 -338 265 -276 276 -300 297 -338 302
-23 3 -55 0 -71 -7 -16 -6 -134 -117 -260 -246 -127 -129 -233 -234 -236 -234
-3 0 -5 306 -5 679 0 604 2 681 16 695 14 14 128 16 1104 16 976 0 1090 -2
1104 -16z"/>
<path d="M1754 2366 c-17 -8 -44 -31 -60 -52 -24 -31 -29 -47 -29 -95 0 -65
18 -98 75 -136 45 -32 124 -31 171 0 48 31 83 105 74 156 -19 111 -129 171
-231 127z"/>
<path d="M1670 715 c0 -207 18 -225 22 -22 3 127 4 139 16 112 75 -171 117
-255 128 -255 11 0 14 33 14 165 0 210 -18 225 -22 18 l-3 -146 -64 146 c-36
83 -70 147 -78 147 -10 0 -13 -35 -13 -165z"/>
<path d="M2220 859 c0 -24 23 -21 28 4 2 10 -3 17 -12 17 -10 0 -16 -9 -16
-21z"/>
<path d="M2649 786 c-27 -14 -46 -42 -35 -53 5 -4 11 -2 13 5 7 19 33 42 48
42 22 0 46 -31 43 -54 -2 -14 -20 -30 -52 -46 -53 -27 -69 -53 -57 -96 10 -40
33 -51 72 -37 24 10 36 10 46 1 10 -8 17 -8 25 0 9 9 9 12 0 12 -8 0 -12 27
-12 89 0 49 -4 101 -9 114 -11 28 -50 39 -82 23z m71 -144 c0 -51 -24 -84 -58
-80 -24 3 -27 7 -27 43 0 36 4 42 35 57 48 24 50 23 50 -20z"/>
<path d="M2843 789 c-41 -15 -60 -95 -42 -179 13 -61 41 -81 90 -63 28 11 29
10 29 -16 0 -15 -5 -32 -12 -39 -17 -17 -67 -15 -74 3 -4 8 -12 15 -20 15 -22
0 -5 -27 26 -40 31 -13 62 -7 85 16 12 12 15 45 15 160 0 89 -4 144 -10 144
-5 0 -10 -5 -10 -11 0 -8 -4 -8 -12 -2 -22 17 -42 21 -65 12z m61 -31 c19 -26
22 -148 6 -179 -13 -23 -53 -25 -74 -3 -12 11 -16 35 -16 87 0 79 16 117 50
117 10 0 26 -10 34 -22z"/>
<path d="M1934 776 c-16 -12 -20 -29 -23 -100 -3 -80 -2 -86 23 -110 30 -31
65 -33 96 -8 38 31 41 180 4 217 -19 19 -74 20 -100 1z m93 -26 c18 -36 17
-141 -3 -168 -18 -26 -56 -29 -78 -6 -12 11 -16 36 -16 90 0 61 3 77 21 95 26
26 60 21 76 -11z"/>
<path d="M2227 783 c-10 -17 -7 -233 3 -233 6 0 10 45 10 120 0 113 -2 131
-13 113z"/>
<path d="M2300 670 c0 -73 4 -120 10 -120 6 0 10 38 10 95 0 84 2 96 22 115
26 24 41 25 62 4 12 -12 16 -38 16 -115 0 -59 4 -99 10 -99 6 0 10 39 10 98 0
83 3 102 18 115 10 10 25 17 33 17 32 0 39 -23 39 -127 0 -62 4 -103 10 -103
15 0 13 213 -2 228 -16 16 -70 16 -86 0 -9 -9 -15 -9 -24 0 -16 16 -70 15 -87
0 -11 -10 -14 -10 -18 0 -14 38 -23 -2 -23 -108z"/>
<path d="M3014 764 c-12 -18 -17 -47 -17 -100 0 -64 3 -78 23 -99 31 -33 72
-33 99 1 21 27 28 54 13 54 -4 0 -13 -13 -19 -30 -9 -24 -17 -30 -42 -30 -34
0 -48 18 -55 74 l-4 36 64 0 64 0 0 30 c0 17 -7 44 -15 60 -13 26 -21 30 -55
30 -31 0 -43 -5 -56 -26z m90 -6 c9 -12 16 -33 16 -45 0 -21 -5 -23 -50 -23
-49 0 -50 1 -50 29 0 56 55 81 84 39z"/>
</g>
</svg>
